<?xml version="1.0" standalone="no"?>
<!DOCTYPE svg PUBLIC "-//W3C//DTD SVG 20010904//EN"
 "http://www.w3.org/TR/2001/REC-SVG-20010904/DTD/svg10.dtd">
<svg version="1.0" xmlns="http://www.w3.org/2000/svg"
 width="1095.000000pt" height="1018.000000pt" viewBox="0 0 1095.000000 1018.000000"
 preserveAspectRatio="xMidYMid meet">

<g transform="translate(0.000000,1018.000000) scale(0.100000,-0.100000)"
fill="#269C0D" stroke="none">
<path d="M3500 9993 c-24 -9 -529 -312 -606 -364 -84 -56 -118 -111 -117 -189
1 -78 -1 -75 388 -575 132 -170 263 -339 291 -375 1160 -1500 1124 -1452 1124
-1490 0 -13 -12 -27 -31 -38 -18 -9 -63 -42 -101 -72 -61 -47 -69 -58 -66 -82
3 -20 0 -29 -14 -34 -25 -7 -24 -56 2 -79 14 -13 20 -14 20 -5 0 7 3 10 7 7 3
-4 13 -1 21 6 13 10 14 9 9 -3 -4 -8 -10 -23 -13 -32 -4 -10 -10 -18 -15 -18
-20 0 -7 -20 14 -21 16 -1 18 -2 5 -6 -10 -2 -18 -9 -18 -14 0 -6 4 -8 9 -5 5
3 16 -6 26 -20 14 -22 22 -25 48 -20 18 3 52 8 77 9 47 3 105 29 177 78 50 35
79 36 109 8 13 -12 32 -27 43 -33 21 -12 587 -715 608 -756 7 -14 13 -32 13
-40 0 -9 -53 -59 -117 -111 -65 -53 -169 -143 -232 -200 -62 -57 -119 -107
-126 -111 -9 -6 -35 19 -81 75 -37 45 -68 83 -69 85 -5 6 -35 -11 -35 -20 0
-6 31 -50 69 -98 l69 -88 -76 -83 c-43 -46 -102 -113 -132 -149 -30 -36 -57
-67 -60 -70 -19 -18 -85 -114 -83 -121 2 -5 -3 -9 -10 -10 -6 0 -28 -26 -48
-57 -20 -31 -69 -106 -108 -167 -87 -134 -196 -350 -215 -426 -35 -141 10
-154 288 -84 319 81 656 236 977 448 l25 17 54 -65 c55 -66 67 -74 87 -54 9 9
-1 28 -38 77 -27 36 -49 68 -49 72 0 3 49 43 108 88 60 45 171 131 248 192 76
60 146 110 155 110 21 0 78 -47 87 -71 4 -9 90 -113 192 -230 290 -335 420
-491 414 -501 -3 -4 4 -20 15 -34 31 -40 26 -59 -30 -117 -28 -28 -69 -75 -90
-103 -34 -44 -38 -55 -30 -76 6 -17 6 -29 -1 -36 -13 -13 7 -78 27 -86 18 -6
45 3 45 15 0 5 4 9 9 9 6 0 0 -18 -11 -40 -20 -37 -18 -72 2 -40 11 17 23 8
27 -22 6 -38 44 -49 78 -24 13 10 25 10 45 3 23 -9 33 -5 81 30 30 23 72 59
94 82 21 23 43 41 47 41 30 0 131 -101 308 -306 113 -131 277 -319 365 -419
88 -99 277 -316 420 -480 143 -165 384 -439 535 -610 151 -170 325 -368 385
-438 123 -143 177 -185 254 -194 73 -8 127 16 204 90 53 52 319 355 460 524
41 50 47 89 23 146 -7 18 -141 203 -296 412 -156 209 -432 580 -613 825 -181
245 -335 450 -343 456 -8 6 -14 14 -14 18 0 8 -309 433 -490 676 -64 85 -150
202 -192 260 -103 142 -757 947 -875 1078 -17 17 -42 55 -57 83 l-28 50 214
217 c234 238 422 446 561 620 61 76 96 112 110 112 28 0 86 -49 581 -484 105
-92 201 -169 214 -173 14 -3 35 -2 48 3 25 10 294 241 294 254 0 4 -16 28 -35
53 -23 30 -40 44 -50 41 -11 -4 -13 -2 -9 9 8 22 -535 692 -549 678 -19 -19
-31 -12 -13 7 15 18 14 22 -34 82 l-50 62 53 37 c342 242 553 419 530 442 -7
7 -50 -20 -140 -89 -137 -107 -399 -282 -420 -282 -21 0 -15 17 15 39 l27 20
-62 2 c-35 2 -73 3 -85 3 -17 1 -22 -4 -20 -16 5 -32 -15 -19 -73 47 -31 36
-64 65 -74 65 -9 0 -32 -16 -51 -35 -19 -19 -39 -35 -44 -35 -6 0 13 24 42 53
l51 52 -37 40 c-21 22 -99 108 -174 190 -246 271 -332 363 -401 425 l-67 62
-72 -58 c-176 -145 -223 -190 -226 -218 -2 -19 10 -48 39 -94 102 -162 428
-691 449 -729 15 -28 31 -43 44 -44 17 -1 18 -2 4 -6 -10 -2 -19 -9 -19 -14
-1 -5 -2 -14 -3 -21 0 -6 -28 -27 -61 -46 -170 -98 -218 -127 -242 -150 -26
-24 -178 -129 -288 -199 -140 -89 -412 -303 -400 -315 2 -2 -11 -4 -29 -5 -68
-5 -100 28 -461 472 -196 242 -444 528 -620 715 -109 117 -249 265 -359 380
-186 195 -290 305 -441 465 -82 88 -198 209 -256 270 -58 60 -220 232 -359
380 -633 674 -642 683 -710 658z m4005 -1601 c-17 -15 -32 -26 -35 -24 -6 4
47 52 58 52 4 0 -7 -13 -23 -28z m-2530 -1253 c-4 -5 -17 -15 -28 -20 -20 -8
-120 -71 -223 -140 -48 -32 -72 -41 -79 -30 -6 10 110 85 198 127 31 16 57 32
57 36 0 4 -3 7 -7 7 -29 -5 -21 5 12 16 50 17 78 18 70 4z m-118 -25 c-3 -3
-12 -4 -19 -1 -8 3 -5 6 6 6 11 1 17 -2 13 -5z m-68 -19 c-10 -9 -191 -76
-196 -71 -9 9 8 26 26 26 9 0 48 11 87 24 69 24 92 30 83 21z m-209 -204 c0
-12 -102 -81 -112 -75 -9 6 34 44 77 67 36 19 35 19 35 8z m460 -115 c0 -2 -8
-10 -17 -17 -16 -13 -17 -12 -4 4 13 16 21 21 21 13z m-67 -81 c-15 -19 -32
-35 -37 -35 -6 0 5 16 24 35 43 45 49 45 13 0z m-513 -95 c0 -5 -2 -10 -4 -10
-3 0 -8 5 -11 10 -3 6 -1 10 4 10 6 0 11 -4 11 -10z m30 -25 c0 -5 -5 -3 -10
5 -5 8 -10 20 -10 25 0 6 5 3 10 -5 5 -8 10 -19 10 -25z m1810 -434 c0 -13
-111 -121 -125 -121 -3 0 -25 -20 -47 -45 -23 -25 -50 -45 -60 -45 -11 0 -22
-9 -25 -20 -3 -11 -9 -20 -13 -20 -4 0 -12 -11 -18 -25 -6 -13 -29 -33 -52
-45 -22 -11 -46 -29 -52 -40 -7 -11 -18 -20 -25 -20 -7 0 -13 -4 -13 -8 0 -8
-122 -105 -190 -151 -19 -13 -41 -32 -48 -42 -10 -14 -20 -17 -40 -12 -23 5
-25 4 -15 -9 11 -12 9 -18 -10 -35 -29 -26 -271 -218 -333 -263 -26 -19 -152
-138 -280 -263 -128 -126 -241 -235 -253 -243 -28 -20 -37 0 -15 34 24 38 335
346 414 411 36 29 95 81 133 115 149 134 174 156 186 156 7 0 10 4 7 9 -4 5 9
19 27 30 18 11 42 29 52 41 10 11 28 20 39 20 20 1 20 2 4 14 -23 17 -23 30
-1 22 9 -4 19 -3 22 2 3 4 29 23 56 42 28 18 66 50 85 69 20 20 50 47 69 61
18 14 38 31 44 38 39 44 72 72 111 92 17 8 48 28 67 43 20 15 40 27 46 27 5 0
15 11 21 25 6 14 19 25 28 25 9 0 23 9 32 20 18 21 151 118 165 119 4 1 7 -3
7 -8z m405 -1 c-3 -5 -11 -10 -16 -10 -6 0 -7 5 -4 10 3 6 11 10 16 10 6 0 7
-4 4 -10z m-800 -230 c-3 -5 -11 -10 -17 -10 -6 0 -16 -7 -22 -15 -13 -18
-209 -92 -268 -101 -32 -6 -40 -4 -36 7 3 8 27 17 58 22 46 6 206 68 250 97
20 13 43 13 35 0z"/>
<path d="M4071 6848 c61 -90 160 -176 217 -191 23 -5 23 -5 -3 19 -14 13 -30
24 -36 24 -5 0 -56 46 -113 103 -99 97 -102 99 -65 45z"/>
<path d="M4180 6776 c0 -2 8 -10 18 -17 15 -13 16 -12 3 4 -13 16 -21 21 -21
13z"/>
<path d="M4329 6630 c-6 -4 -8 -13 -5 -19 4 -6 2 -11 -3 -11 -6 0 -11 5 -11
10 0 6 -5 10 -10 10 -6 0 -3 -11 7 -24 10 -13 21 -22 25 -20 3 2 4 -5 1 -15
-3 -13 2 -23 16 -30 11 -6 26 -23 33 -39 15 -31 55 -42 64 -18 3 8 -4 29 -16
46 -12 17 -23 36 -24 43 -11 50 -20 65 -41 69 -13 3 -29 2 -36 -2z"/>
<path d="M4257 6555 l-28 -25 24 0 c30 0 62 23 53 38 -10 17 -17 15 -49 -13z"/>
<path d="M4800 5925 c30 -30 57 -55 59 -55 3 0 -19 25 -49 55 -30 30 -57 55
-59 55 -3 0 19 -25 49 -55z"/>
<path d="M5939 4575 c47 -80 358 -539 421 -623 55 -72 79 -94 143 -132 42 -25
82 -52 89 -61 7 -9 25 -19 40 -23 18 -4 32 -18 45 -46 10 -22 25 -42 34 -45 9
-3 26 -28 39 -55 36 -77 68 -121 171 -232 53 -57 137 -149 189 -205 51 -57 95
-103 98 -103 3 0 -8 15 -24 33 -179 193 -183 198 -350 451 -60 90 -83 138 -84
173 0 25 -7 36 -34 52 -19 12 -37 28 -40 36 -3 8 -12 15 -21 15 -8 0 -15 3
-15 8 0 4 -14 22 -31 40 -24 26 -34 30 -49 22 -16 -8 -18 -6 -15 18 3 29 -30
77 -148 217 -104 121 -483 503 -458 460z"/>
<path d="M6600 3704 c0 -8 5 -12 10 -9 16 10 12 -13 -7 -42 -14 -21 -15 -25
-3 -18 8 5 21 10 29 12 8 1 20 8 27 15 12 11 11 17 -2 36 -17 25 -54 30 -54 6z"/>
<path d="M7235 3010 c10 -11 20 -20 23 -20 3 0 -3 9 -13 20 -10 11 -20 20 -23
20 -3 0 3 -9 13 -20z"/>
</g>
</svg>
